<svg width="68" height="68" viewBox="0 0 68 68" fill="none" xmlns="http://www.w3.org/2000/svg">
<path d="M46.6762 15.3222L52.6772 21.3203L46.6762 15.3222ZM50.5352 10.038L34.3087 26.2645C33.4703 27.1018 32.8985 28.1685 32.6653 29.3302L31.1665 36.8328L38.6692 35.3312C39.8308 35.0988 40.8962 34.5293 41.7348 33.6907L57.9613 17.4642C58.4489 16.9766 58.8357 16.3977 59.0996 15.7606C59.3635 15.1235 59.4993 14.4407 59.4993 13.7511C59.4993 13.0615 59.3635 12.3787 59.0996 11.7416C58.8357 11.1045 58.4489 10.5256 57.9613 10.038C57.4737 9.5504 56.8949 9.16361 56.2578 8.89972C55.6207 8.63582 54.9378 8.5 54.2483 8.5C53.5587 8.5 52.8758 8.63582 52.2387 8.89972C51.6017 9.16361 51.0228 9.5504 50.5352 10.038V10.038Z" stroke="white" stroke-width="2.5" stroke-linecap="round" stroke-linejoin="round"/>
<path d="M53.8333 42.4993V50.9993C53.8333 52.5022 53.2362 53.9436 52.1735 55.0063C51.1108 56.069 49.6695 56.666 48.1666 56.666H16.9999C15.497 56.666 14.0557 56.069 12.993 55.0063C11.9303 53.9436 11.3333 52.5022 11.3333 50.9993V19.8327C11.3333 18.3298 11.9303 16.8884 12.993 15.8257C14.0557 14.763 15.497 14.166 16.9999 14.166H25.4999" stroke="white" stroke-width="2.5" stroke-linecap="round" stroke-linejoin="round"/>
</svg>
