<svg width="68" height="68" viewBox="0 0 68 68" fill="none" xmlns="http://www.w3.org/2000/svg">
<path d="M51.859 52.054L51.8593 52.0545L51.8593 52.0546L51.8596 52.055L51.8598 52.0555L52.7 53.53V51.8312V11.5C52.7 10.3861 52.2575 9.3178 51.4698 8.53015C50.6822 7.7425 49.6139 7.3 48.5 7.3H18.5C17.3861 7.3 16.3178 7.7425 15.5302 8.53015C14.7425 9.3178 14.3 10.3861 14.3 11.5V51.8312V53.53L15.1402 52.0555L15.1404 52.055L15.1407 52.0546L15.1407 52.0545L15.141 52.054L15.146 52.0457C15.1514 52.0369 15.1606 52.022 15.1738 52.0015C15.2003 51.9605 15.2429 51.8971 15.3034 51.8144C15.4245 51.6491 15.6174 51.4068 15.8966 51.1128C16.4547 50.5252 17.3591 49.7294 18.7272 48.929C21.4609 47.3298 26.0676 45.7 33.5 45.7C40.9324 45.7 45.5391 47.3298 48.2728 48.929C49.6409 49.7294 50.5453 50.5252 51.1034 51.1128C51.3826 51.4068 51.5755 51.6491 51.6966 51.8144C51.7571 51.8971 51.7997 51.9605 51.8262 52.0015C51.8304 52.008 51.8342 52.0139 51.8376 52.0193C51.8449 52.0308 51.8503 52.0397 51.854 52.0457L51.859 52.054ZM13.5149 6.5149C14.837 5.19277 16.6302 4.45 18.5 4.45H48.5C50.3698 4.45 52.163 5.19277 53.4851 6.5149C54.8072 7.83703 55.55 9.63022 55.55 11.5V56.5C55.55 58.3698 54.8072 60.163 53.4851 61.4851C52.163 62.8072 50.3698 63.55 48.5 63.55H18.5C16.6302 63.55 14.837 62.8072 13.5149 61.4851C12.1928 60.163 11.45 58.3698 11.45 56.5V11.5C11.45 9.63022 12.1928 7.83703 13.5149 6.5149Z" fill="white" stroke="#1E4E79" stroke-width="0.9"/>
<path d="M37.633 40.2279C36.3227 40.7707 34.9183 41.05 33.5 41.05C30.6357 41.05 27.8886 39.9121 25.8632 37.8868C23.8379 35.8614 22.7 33.1143 22.7 30.25C22.7 27.3857 23.8379 24.6386 25.8632 22.6132C27.8886 20.5879 30.6357 19.45 33.5 19.45C34.9183 19.45 36.3227 19.7294 37.633 20.2721C38.9433 20.8149 40.1339 21.6104 41.1368 22.6132C42.1396 23.6161 42.9351 24.8067 43.4779 26.117C44.0207 27.4273 44.3 28.8317 44.3 30.25C44.3 31.6683 44.0207 33.0727 43.4779 34.383C42.9351 35.6933 42.1396 36.8839 41.1368 37.8868C40.1339 38.8896 38.9433 39.6851 37.633 40.2279Z" fill="white" stroke="#1E4E79" stroke-width="0.9"/>
</svg>
