<svg width="68" height="68" viewBox="0 0 68 68" fill="none" xmlns="http://www.w3.org/2000/svg">
<path d="M49.1466 6.85337C48.3121 6.01884 47.1802 5.55 46 5.55H22C20.8198 5.55 19.6879 6.01884 18.8534 6.85337C18.0188 7.68791 17.55 8.81979 17.55 10V58C17.55 59.1802 18.0188 60.3121 18.8534 61.1466C19.6879 61.9812 20.8198 62.45 22 62.45H46C47.1802 62.45 48.3121 61.9812 49.1466 61.1466C49.9812 60.3121 50.45 59.1802 50.45 58V10C50.45 8.81979 49.9812 7.68791 49.1466 6.85337ZM16.6613 4.66134C18.0772 3.24544 19.9976 2.45 22 2.45H46C48.0024 2.45 49.9228 3.24544 51.3387 4.66134C52.7546 6.07724 53.55 7.99762 53.55 10V58C53.55 60.0024 52.7546 61.9228 51.3387 63.3387C49.9228 64.7546 48.0024 65.55 46 65.55H22C19.9976 65.55 18.0772 64.7546 16.6613 63.3387C15.2454 61.9228 14.45 60.0024 14.45 58V10C14.45 7.99762 15.2454 6.07724 16.6613 4.66134Z" fill="white" stroke="#1E4E79" stroke-width="0.9"/>
<path d="M36.5102 56.5102C35.8445 57.176 34.9415 57.55 34 57.55C33.0585 57.55 32.1555 57.176 31.4898 56.5102C30.824 55.8445 30.45 54.9415 30.45 54C30.45 53.0585 30.824 52.1555 31.4898 51.4898C32.1555 50.824 33.0585 50.45 34 50.45C34.9415 50.45 35.8445 50.824 36.5102 51.4898C37.176 52.1555 37.55 53.0585 37.55 54C37.55 54.9415 37.176 55.8445 36.5102 56.5102Z" fill="white" stroke="#1E4E79" stroke-width="0.9"/>
</svg>
